<svg xmlns="http://www.w3.org/2000/svg" xmlns:xlink="http://www.w3.org/1999/xlink" width="100" zoomAndPan="magnify" viewBox="0 0 75 74.999997" height="100" preserveAspectRatio="xMidYMid meet" version="1.0"><defs><clipPath id="5b3608fb9a"><path d="M 9.078125 13.128906 L 65 13.128906 L 65 61 L 9.078125 61 Z M 9.078125 13.128906 " clip-rule="nonzero"/></clipPath><clipPath id="8e61723ce3"><path d="M 9.078125 13.128906 L 65 13.128906 L 65 42 L 9.078125 42 Z M 9.078125 13.128906 " clip-rule="nonzero"/></clipPath><clipPath id="e80cd831b5"><path d="M 34 13.128906 L 65 13.128906 L 65 61 L 34 61 Z M 34 13.128906 " clip-rule="nonzero"/></clipPath></defs><g clip-path="url(#5b3608fb9a)"><path fill="#ffffff" d="M 63.828125 14.109375 C 64.597656 14.761719 64.941406 15.785156 64.71875 16.765625 L 55.207031 58.683594 C 55 59.597656 54.332031 60.339844 53.441406 60.644531 C 52.550781 60.949219 51.566406 60.773438 50.835938 60.179688 L 38.410156 50.0625 L 33.195312 59.402344 C 32.660156 60.355469 31.601562 60.898438 30.507812 60.773438 C 29.417969 60.648438 28.507812 59.882812 28.207031 58.832031 L 23.226562 41.484375 L 11.265625 39.105469 C 10.085938 38.871094 9.203125 37.894531 9.089844 36.707031 C 8.980469 35.519531 9.664062 34.394531 10.777344 33.945312 L 61.046875 13.664062 C 61.984375 13.285156 63.054688 13.457031 63.828125 14.109375 Z M 21.21875 35.570312 L 25.917969 36.507812 C 26.914062 36.703125 27.71875 37.441406 27.996094 38.414062 L 31.628906 51.066406 L 35.238281 44.605469 C 35.628906 43.90625 36.3125 43.414062 37.101562 43.261719 C 37.894531 43.113281 38.710938 43.316406 39.332031 43.824219 L 50.875 53.222656 L 58.273438 20.621094 Z M 21.21875 35.570312 " fill-opacity="1" fill-rule="evenodd"/></g><g clip-path="url(#8e61723ce3)"><path fill="#ffffff" d="M 63.515625 18.460938 C 64.707031 17.714844 65.128906 16.183594 64.488281 14.9375 C 63.84375 13.691406 62.351562 13.140625 61.046875 13.664062 L 10.777344 33.949219 C 9.664062 34.394531 8.980469 35.519531 9.089844 36.707031 C 9.203125 37.894531 10.085938 38.871094 11.265625 39.105469 L 24.851562 41.808594 C 25.535156 41.945312 26.242188 41.816406 26.832031 41.445312 Z M 63.515625 18.460938 " fill-opacity="1" fill-rule="evenodd"/></g><g clip-path="url(#e80cd831b5)"><path fill="#ffffff" d="M 64.71875 16.765625 C 64.996094 15.542969 64.394531 14.289062 63.261719 13.742188 C 62.128906 13.191406 60.765625 13.488281 59.964844 14.457031 L 35.507812 44.207031 C 34.558594 45.363281 34.730469 47.066406 35.890625 48.011719 L 50.835938 60.179688 C 51.566406 60.773438 52.550781 60.949219 53.441406 60.644531 C 54.332031 60.339844 55 59.597656 55.207031 58.683594 Z M 64.71875 16.765625 " fill-opacity="1" fill-rule="evenodd"/></g></svg>